<svg xmlns="http://www.w3.org/2000/svg" width="1536" height="1536" viewBox="680 -385 1536 1536" enable-background="new 680 -385 1536 1536"><path fill="#fff" d="M2042 913V265h-135c13.3 42 20 85.7 20 131 0 84-21.3 161.5-64 232.5S1762.3 755.7 1689 797s-153.3 62-240 62c-131.3 0-243.7-45.2-337-135.5S972 524 972 396c0-45.3 6.7-89 20-131H851v648c0 17.3 5.8 31.8 17.5 43.5S894.7 974 912 974h1069c16.7 0 31-5.8 43-17.5s18-26.2 18-43.5zM2042-145c0-18.7-6.7-34.8-20-48.5-13.3-13.7-29.7-20.5-49-20.5h-174c-19.3 0-35.7 6.8-49 20.5-13.3 13.7-20 29.8-20 48.5V20c0 19.3 6.7 35.7 20 49s29.7 20 49 20h174c19.3 0 35.7-6.7 49-20s20-29.7 20-49v-165zM1449 679c85.3 0 158.2-29.2 218.5-87.5S1758 462.7 1758 380c0-82.7-30.2-153.2-90.5-211.5S1534.3 81 1449 81c-84.7 0-157.2 29.2-217.5 87.5S1141 297.3 1141 380c0 82.7 30.2 153.2 90.5 211.5S1364.3 679 1449 679z"/><path fill="#383838" d="M2042 913V265h-135c13.3 42 20 85.7 20 131 0 84-21.3 161.5-64 232.5S1762.3 755.7 1689 797s-153.3 62-240 62c-131.3 0-243.7-45.2-337-135.5S972 524 972 396c0-45.3 6.7-89 20-131H851v648c0 17.3 5.8 31.8 17.5 43.5S894.7 974 912 974h1069c16.7 0 31-5.8 43-17.5s18-26.2 18-43.5zm-284-533c0-82.7-30.2-153.2-90.5-211.5S1534.3 81 1449 81c-84.7 0-157.2 29.2-217.5 87.5S1141 297.3 1141 380s30.2 153.2 90.5 211.5S1364.3 679 1449 679c85.3 0 158.2-29.2 218.5-87.5S1758 462.7 1758 380zm284-360v-165c0-18.7-6.7-34.8-20-48.5s-29.7-20.5-49-20.5h-174c-19.3 0-35.7 6.8-49 20.5s-20 29.8-20 48.5V20c0 19.3 6.7 35.7 20 49s29.7 20 49 20h174c19.3 0 35.7-6.7 49-20s20-29.7 20-49zm174-208V954c0 54-19.3 100.3-58 139s-85 58-139 58H877c-54 0-100.3-19.3-139-58s-58-85-58-139V-188c0-54 19.3-100.3 58-139s85-58 139-58h1142c54 0 100.3 19.3 139 58s58 85 58 139z"/></svg>