<svg xmlns="http://www.w3.org/2000/svg" width="1536" height="1536" viewBox="680 -385 1536 1536" enable-background="new 680 -385 1536 1536"><path fill="#fff" d="M1932 14c-43.3 25.3-88 42.3-134 51-40.7-44-91.7-66-153-66-58 0-107.5 20.5-148.5 61.5S1435 151 1435 209c0 19.3 1.7 35.3 5 48-86-4.7-166.7-26.3-242-65s-139.3-90.3-192-155c-19.3 33.3-29 68.7-29 106 0 76 30.3 134.3 91 175-31.3-.7-64.7-9.3-100-26v2c0 50 16.7 94.5 50 133.5s74.3 63.2 123 72.5c-19.3 5.3-36.3 8-51 8-8.7 0-21.7-1.3-39-4 14 42 38.8 76.7 74.5 104s76.2 41.3 121.5 42c-77.3 60-164.3 90-261 90-17.3 0-34-1-50-3 98.7 62.7 206 94 322 94 74.7 0 144.7-11.8 210-35.5 65.3-23.7 121.3-55.3 168-95s86.8-85.3 120.5-137 58.7-105.7 75-162C1847.8 345.2 1856 289 1856 233c0-12-.3-21-1-27 42-30 77-66.3 105-109-37.3 16.7-77.7 28-121 34 45.3-26.7 76.3-65.7 93-117z"/><path fill="#383838" d="M1960 97c-37.3 16.7-77.7 28-121 34 45.3-26.7 76.3-65.7 93-117-43.3 25.3-88 42.3-134 51-40.7-44-91.7-66-153-66-58 0-107.5 20.5-148.5 61.5S1435 151 1435 209c0 19.3 1.7 35.3 5 48-86-4.7-166.7-26.3-242-65s-139.3-90.3-192-155c-19.3 33.3-29 68.7-29 106 0 76 30.3 134.3 91 175-31.3-.7-64.7-9.3-100-26v2c0 50 16.7 94.5 50 133.5s74.3 63.2 123 72.5c-19.3 5.3-36.3 8-51 8-8.7 0-21.7-1.3-39-4 14 42 38.8 76.7 74.5 104s76.2 41.3 121.5 42c-77.3 60-164.3 90-261 90-17.3 0-34-1-50-3 98.7 62.7 206 94 322 94 74.7 0 144.7-11.8 210-35.5 65.3-23.7 121.3-55.3 168-95s86.8-85.3 120.5-137 58.7-105.7 75-162C1847.8 345.2 1856 289 1856 233c0-12-.3-21-1-27 42-30 77-66.3 105-109zm256-194v960c0 79.3-28.2 147.2-84.5 203.5S2007.3 1151 1928 1151H968c-79.3 0-147.2-28.2-203.5-84.5S680 942.3 680 863V-97c0-79.3 28.2-147.2 84.5-203.5S888.7-385 968-385h960c79.3 0 147.2 28.2 203.5 84.5S2216-176.3 2216-97z"/></svg>